<svg width="988" height="520" xmlns="http://www.w3.org/2000/svg">
<rect x="0" y="0" width="988" height="520" stroke="rgb(0,0,0)" stroke-width="1" fill="transparent" />
<rect x="1" y="1" width="986" height="39" stroke="rgb(191,10,48)" stroke-width="1" fill="rgb(191,10,48)" />
<rect x="1" y="41" width="986" height="39" stroke="rgb(255,255,255)" stroke-width="1" fill="rgb(255,255,255)" />
<rect x="1" y="81" width="986" height="39" stroke="rgb(191,10,48)" stroke-width="1" fill="rgb(191,10,48)" />
<rect x="1" y="121" width="986" height="39" stroke="rgb(255,255,255)" stroke-width="1" fill="rgb(255,255,255)" />
<rect x="1" y="161" width="986" height="39" stroke="rgb(191,10,48)" stroke-width="1" fill="rgb(191,10,48)" />
<rect x="1" y="201" width="986" height="39" stroke="rgb(255,255,255)" stroke-width="1" fill="rgb(255,255,255)" />
<rect x="1" y="241" width="986" height="39" stroke="rgb(191,10,48)" stroke-width="1" fill="rgb(191,10,48)" />
<rect x="1" y="281" width="986" height="39" stroke="rgb(255,255,255)" stroke-width="1" fill="rgb(255,255,255)" />
<rect x="1" y="321" width="986" height="39" stroke="rgb(191,10,48)" stroke-width="1" fill="rgb(191,10,48)" />
<rect x="1" y="361" width="986" height="39" stroke="rgb(255,255,255)" stroke-width="1" fill="rgb(255,255,255)" />
<rect x="1" y="401" width="986" height="39" stroke="rgb(191,10,48)" stroke-width="1" fill="rgb(191,10,48)" />
<rect x="1" y="441" width="986" height="39" stroke="rgb(255,255,255)" stroke-width="1" fill="rgb(255,255,255)" />
<rect x="1" y="481" width="986" height="39" stroke="rgb(191,10,48)" stroke-width="1" fill="rgb(191,10,48)" />
<rect x="1" y="1" width="399" height="279" stroke="rgb(0,32,91)" stroke-width="1" fill="rgb(0,32,91)" />
<polygon points="33,18 30.6489,24.7639 23.4894,24.9098 29.1958,29.2361 27.1221,36.0902 33,32 38.8779,36.0902 36.8042,29.2361 42.5106,24.9098 35.3511,24.7639" stroke="rgb(255,255,255)" stroke-width="1" fill="rgb(255,255,255)" />
<polygon points="100,18 97.6489,24.7639 90.4894,24.9098 96.1958,29.2361 94.1221,36.0902 100,32 105.878,36.0902 103.804,29.2361 109.511,24.9098 102.351,24.7639" stroke="rgb(255,255,255)" stroke-width="1" fill="rgb(255,255,255)" />
<polygon points="167,18 164.649,24.7639 157.489,24.9098 163.196,29.2361 161.122,36.0902 167,32 172.878,36.0902 170.804,29.2361 176.511,24.9098 169.351,24.7639" stroke="rgb(255,255,255)" stroke-width="1" fill="rgb(255,255,255)" />
<polygon points="233,18 230.649,24.7639 223.489,24.9098 229.196,29.2361 227.122,36.0902 233,32 238.878,36.0902 236.804,29.2361 242.511,24.9098 235.351,24.7639" stroke="rgb(255,255,255)" stroke-width="1" fill="rgb(255,255,255)" />
<polygon points="300,18 297.649,24.7639 290.489,24.9098 296.196,29.2361 294.122,36.0902 300,32 305.878,36.0902 303.804,29.2361 309.511,24.9098 302.351,24.7639" stroke="rgb(255,255,255)" stroke-width="1" fill="rgb(255,255,255)" />
<polygon points="367,18 364.649,24.7639 357.489,24.9098 363.196,29.2361 361.122,36.0902 367,32 372.878,36.0902 370.804,29.2361 376.511,24.9098 369.351,24.7639" stroke="rgb(255,255,255)" stroke-width="1" fill="rgb(255,255,255)" />
<polygon points="33,74 30.6489,80.7639 23.4894,80.9098 29.1958,85.2361 27.1221,92.0902 33,88 38.8779,92.0902 36.8042,85.2361 42.5106,80.9098 35.3511,80.7639" stroke="rgb(255,255,255)" stroke-width="1" fill="rgb(255,255,255)" />
<polygon points="100,74 97.6489,80.7639 90.4894,80.9098 96.1958,85.2361 94.1221,92.0902 100,88 105.878,92.0902 103.804,85.2361 109.511,80.9098 102.351,80.7639" stroke="rgb(255,255,255)" stroke-width="1" fill="rgb(255,255,255)" />
<polygon points="167,74 164.649,80.7639 157.489,80.9098 163.196,85.2361 161.122,92.0902 167,88 172.878,92.0902 170.804,85.2361 176.511,80.9098 169.351,80.7639" stroke="rgb(255,255,255)" stroke-width="1" fill="rgb(255,255,255)" />
<polygon points="233,74 230.649,80.7639 223.489,80.9098 229.196,85.2361 227.122,92.0902 233,88 238.878,92.0902 236.804,85.2361 242.511,80.9098 235.351,80.7639" stroke="rgb(255,255,255)" stroke-width="1" fill="rgb(255,255,255)" />
<polygon points="300,74 297.649,80.7639 290.489,80.9098 296.196,85.2361 294.122,92.0902 300,88 305.878,92.0902 303.804,85.2361 309.511,80.9098 302.351,80.7639" stroke="rgb(255,255,255)" stroke-width="1" fill="rgb(255,255,255)" />
<polygon points="367,74 364.649,80.7639 357.489,80.9098 363.196,85.2361 361.122,92.0902 367,88 372.878,92.0902 370.804,85.2361 376.511,80.9098 369.351,80.7639" stroke="rgb(255,255,255)" stroke-width="1" fill="rgb(255,255,255)" />
<polygon points="33,130 30.6489,136.764 23.4894,136.91 29.1958,141.236 27.1221,148.09 33,144 38.8779,148.09 36.8042,141.236 42.5106,136.91 35.3511,136.764" stroke="rgb(255,255,255)" stroke-width="1" fill="rgb(255,255,255)" />
<polygon points="100,130 97.6489,136.764 90.4894,136.91 96.1958,141.236 94.1221,148.09 100,144 105.878,148.09 103.804,141.236 109.511,136.91 102.351,136.764" stroke="rgb(255,255,255)" stroke-width="1" fill="rgb(255,255,255)" />
<polygon points="167,130 164.649,136.764 157.489,136.91 163.196,141.236 161.122,148.09 167,144 172.878,148.09 170.804,141.236 176.511,136.91 169.351,136.764" stroke="rgb(255,255,255)" stroke-width="1" fill="rgb(255,255,255)" />
<polygon points="233,130 230.649,136.764 223.489,136.91 229.196,141.236 227.122,148.09 233,144 238.878,148.09 236.804,141.236 242.511,136.91 235.351,136.764" stroke="rgb(255,255,255)" stroke-width="1" fill="rgb(255,255,255)" />
<polygon points="300,130 297.649,136.764 290.489,136.91 296.196,141.236 294.122,148.09 300,144 305.878,148.09 303.804,141.236 309.511,136.91 302.351,136.764" stroke="rgb(255,255,255)" stroke-width="1" fill="rgb(255,255,255)" />
<polygon points="367,130 364.649,136.764 357.489,136.91 363.196,141.236 361.122,148.09 367,144 372.878,148.09 370.804,141.236 376.511,136.91 369.351,136.764" stroke="rgb(255,255,255)" stroke-width="1" fill="rgb(255,255,255)" />
<polygon points="33,186 30.6489,192.764 23.4894,192.91 29.1958,197.236 27.1221,204.09 33,200 38.8779,204.09 36.8042,197.236 42.5106,192.91 35.3511,192.764" stroke="rgb(255,255,255)" stroke-width="1" fill="rgb(255,255,255)" />
<polygon points="100,186 97.6489,192.764 90.4894,192.91 96.1958,197.236 94.1221,204.09 100,200 105.878,204.09 103.804,197.236 109.511,192.91 102.351,192.764" stroke="rgb(255,255,255)" stroke-width="1" fill="rgb(255,255,255)" />
<polygon points="167,186 164.649,192.764 157.489,192.91 163.196,197.236 161.122,204.09 167,200 172.878,204.09 170.804,197.236 176.511,192.91 169.351,192.764" stroke="rgb(255,255,255)" stroke-width="1" fill="rgb(255,255,255)" />
<polygon points="233,186 230.649,192.764 223.489,192.91 229.196,197.236 227.122,204.09 233,200 238.878,204.09 236.804,197.236 242.511,192.91 235.351,192.764" stroke="rgb(255,255,255)" stroke-width="1" fill="rgb(255,255,255)" />
<polygon points="300,186 297.649,192.764 290.489,192.91 296.196,197.236 294.122,204.09 300,200 305.878,204.09 303.804,197.236 309.511,192.91 302.351,192.764" stroke="rgb(255,255,255)" stroke-width="1" fill="rgb(255,255,255)" />
<polygon points="367,186 364.649,192.764 357.489,192.91 363.196,197.236 361.122,204.09 367,200 372.878,204.09 370.804,197.236 376.511,192.91 369.351,192.764" stroke="rgb(255,255,255)" stroke-width="1" fill="rgb(255,255,255)" />
<polygon points="33,242 30.6489,248.764 23.4894,248.91 29.1958,253.236 27.1221,260.09 33,256 38.8779,260.09 36.8042,253.236 42.5106,248.91 35.3511,248.764" stroke="rgb(255,255,255)" stroke-width="1" fill="rgb(255,255,255)" />
<polygon points="100,242 97.6489,248.764 90.4894,248.91 96.1958,253.236 94.1221,260.09 100,256 105.878,260.09 103.804,253.236 109.511,248.91 102.351,248.764" stroke="rgb(255,255,255)" stroke-width="1" fill="rgb(255,255,255)" />
<polygon points="167,242 164.649,248.764 157.489,248.91 163.196,253.236 161.122,260.09 167,256 172.878,260.09 170.804,253.236 176.511,248.91 169.351,248.764" stroke="rgb(255,255,255)" stroke-width="1" fill="rgb(255,255,255)" />
<polygon points="233,242 230.649,248.764 223.489,248.91 229.196,253.236 227.122,260.09 233,256 238.878,260.09 236.804,253.236 242.511,248.91 235.351,248.764" stroke="rgb(255,255,255)" stroke-width="1" fill="rgb(255,255,255)" />
<polygon points="300,242 297.649,248.764 290.489,248.91 296.196,253.236 294.122,260.09 300,256 305.878,260.09 303.804,253.236 309.511,248.91 302.351,248.764" stroke="rgb(255,255,255)" stroke-width="1" fill="rgb(255,255,255)" />
<polygon points="367,242 364.649,248.764 357.489,248.91 363.196,253.236 361.122,260.09 367,256 372.878,260.09 370.804,253.236 376.511,248.91 369.351,248.764" stroke="rgb(255,255,255)" stroke-width="1" fill="rgb(255,255,255)" />
<polygon points="67,46 64.6489,52.7639 57.4894,52.9098 63.1958,57.2361 61.1221,64.0902 67,60 72.8779,64.0902 70.8042,57.2361 76.5106,52.9098 69.3511,52.7639" stroke="rgb(255,255,255)" stroke-width="1" fill="rgb(255,255,255)" />
<polygon points="133,46 130.649,52.7639 123.489,52.9098 129.196,57.2361 127.122,64.0902 133,60 138.878,64.0902 136.804,57.2361 142.511,52.9098 135.351,52.7639" stroke="rgb(255,255,255)" stroke-width="1" fill="rgb(255,255,255)" />
<polygon points="200,46 197.649,52.7639 190.489,52.9098 196.196,57.2361 194.122,64.0902 200,60 205.878,64.0902 203.804,57.2361 209.511,52.9098 202.351,52.7639" stroke="rgb(255,255,255)" stroke-width="1" fill="rgb(255,255,255)" />
<polygon points="267,46 264.649,52.7639 257.489,52.9098 263.196,57.2361 261.122,64.0902 267,60 272.878,64.0902 270.804,57.2361 276.511,52.9098 269.351,52.7639" stroke="rgb(255,255,255)" stroke-width="1" fill="rgb(255,255,255)" />
<polygon points="333,46 330.649,52.7639 323.489,52.9098 329.196,57.2361 327.122,64.0902 333,60 338.878,64.0902 336.804,57.2361 342.511,52.9098 335.351,52.7639" stroke="rgb(255,255,255)" stroke-width="1" fill="rgb(255,255,255)" />
<polygon points="67,102 64.6489,108.764 57.4894,108.91 63.1958,113.236 61.1221,120.09 67,116 72.8779,120.09 70.8042,113.236 76.5106,108.91 69.3511,108.764" stroke="rgb(255,255,255)" stroke-width="1" fill="rgb(255,255,255)" />
<polygon points="133,102 130.649,108.764 123.489,108.91 129.196,113.236 127.122,120.09 133,116 138.878,120.09 136.804,113.236 142.511,108.91 135.351,108.764" stroke="rgb(255,255,255)" stroke-width="1" fill="rgb(255,255,255)" />
<polygon points="200,102 197.649,108.764 190.489,108.91 196.196,113.236 194.122,120.09 200,116 205.878,120.09 203.804,113.236 209.511,108.91 202.351,108.764" stroke="rgb(255,255,255)" stroke-width="1" fill="rgb(255,255,255)" />
<polygon points="267,102 264.649,108.764 257.489,108.91 263.196,113.236 261.122,120.09 267,116 272.878,120.09 270.804,113.236 276.511,108.91 269.351,108.764" stroke="rgb(255,255,255)" stroke-width="1" fill="rgb(255,255,255)" />
<polygon points="333,102 330.649,108.764 323.489,108.91 329.196,113.236 327.122,120.09 333,116 338.878,120.09 336.804,113.236 342.511,108.91 335.351,108.764" stroke="rgb(255,255,255)" stroke-width="1" fill="rgb(255,255,255)" />
<polygon points="67,158 64.6489,164.764 57.4894,164.91 63.1958,169.236 61.1221,176.09 67,172 72.8779,176.09 70.8042,169.236 76.5106,164.91 69.3511,164.764" stroke="rgb(255,255,255)" stroke-width="1" fill="rgb(255,255,255)" />
<polygon points="133,158 130.649,164.764 123.489,164.91 129.196,169.236 127.122,176.09 133,172 138.878,176.09 136.804,169.236 142.511,164.91 135.351,164.764" stroke="rgb(255,255,255)" stroke-width="1" fill="rgb(255,255,255)" />
<polygon points="200,158 197.649,164.764 190.489,164.91 196.196,169.236 194.122,176.09 200,172 205.878,176.09 203.804,169.236 209.511,164.91 202.351,164.764" stroke="rgb(255,255,255)" stroke-width="1" fill="rgb(255,255,255)" />
<polygon points="267,158 264.649,164.764 257.489,164.91 263.196,169.236 261.122,176.09 267,172 272.878,176.09 270.804,169.236 276.511,164.91 269.351,164.764" stroke="rgb(255,255,255)" stroke-width="1" fill="rgb(255,255,255)" />
<polygon points="333,158 330.649,164.764 323.489,164.91 329.196,169.236 327.122,176.09 333,172 338.878,176.09 336.804,169.236 342.511,164.91 335.351,164.764" stroke="rgb(255,255,255)" stroke-width="1" fill="rgb(255,255,255)" />
<polygon points="67,214 64.6489,220.764 57.4894,220.91 63.1958,225.236 61.1221,232.09 67,228 72.8779,232.09 70.8042,225.236 76.5106,220.91 69.3511,220.764" stroke="rgb(255,255,255)" stroke-width="1" fill="rgb(255,255,255)" />
<polygon points="133,214 130.649,220.764 123.489,220.91 129.196,225.236 127.122,232.09 133,228 138.878,232.09 136.804,225.236 142.511,220.91 135.351,220.764" stroke="rgb(255,255,255)" stroke-width="1" fill="rgb(255,255,255)" />
<polygon points="200,214 197.649,220.764 190.489,220.91 196.196,225.236 194.122,232.09 200,228 205.878,232.09 203.804,225.236 209.511,220.91 202.351,220.764" stroke="rgb(255,255,255)" stroke-width="1" fill="rgb(255,255,255)" />
<polygon points="267,214 264.649,220.764 257.489,220.91 263.196,225.236 261.122,232.09 267,228 272.878,232.09 270.804,225.236 276.511,220.91 269.351,220.764" stroke="rgb(255,255,255)" stroke-width="1" fill="rgb(255,255,255)" />
<polygon points="333,214 330.649,220.764 323.489,220.91 329.196,225.236 327.122,232.09 333,228 338.878,232.09 336.804,225.236 342.511,220.91 335.351,220.764" stroke="rgb(255,255,255)" stroke-width="1" fill="rgb(255,255,255)" />
</svg>
